HIERARCHY
ROOT joint_0
{
	OFFSET 0.000000 0.000000 0.000000
	CHANNELS 6 Xposition Yposition Zposition Zrotation Yrotation Xrotation 
	JOINT joint_1
	{
		OFFSET 8.185791 -2.713684 100.414917
		CHANNELS 3 Zrotation Yrotation Xrotation
		JOINT joint_2
		{
			OFFSET -4.376465 -1.111145 91.934082
			CHANNELS 3 Zrotation Yrotation Xrotation
			JOINT joint_3
			{
				OFFSET -6.985840 -1.054016 91.669922
				CHANNELS 3 Zrotation Yrotation Xrotation
				JOINT joint_4
				{
					OFFSET 0.150391 -4.451904 123.526001
					CHANNELS 3 Zrotation Yrotation Xrotation
					JOINT joint_5
					{
						OFFSET 19.754150 -8.123901 80.916992
						CHANNELS 3 Zrotation Yrotation Xrotation
						End Site
						{
							OFFSET 0.000000 0.000000 0.000000
						}
					}
				}
				JOINT joint_6
				{
					OFFSET -6.477539 -28.517334 68.237061
					CHANNELS 3 Zrotation Yrotation Xrotation
					JOINT joint_7
					{
						OFFSET -20.564453 -115.426208 -21.139038
						CHANNELS 3 Zrotation Yrotation Xrotation
						JOINT joint_8
						{
							OFFSET 18.981934 -19.826172 -267.898926
							CHANNELS 3 Zrotation Yrotation Xrotation
							JOINT joint_9
							{
								OFFSET 11.562744 -19.325867 -235.478027
								CHANNELS 3 Zrotation Yrotation Xrotation
								End Site
								{
									OFFSET 0.000000 0.000000 0.000000
								}
							}
						}
					}
				}
				JOINT joint_10
				{
					OFFSET 7.033936 23.504700 70.088989
					CHANNELS 3 Zrotation Yrotation Xrotation
					JOINT joint_11
					{
						OFFSET 36.629639 112.486816 -14.036987
						CHANNELS 3 Zrotation Yrotation Xrotation
						JOINT joint_12
						{
							OFFSET 41.355225 -7.048523 -266.019897
							CHANNELS 3 Zrotation Yrotation Xrotation
							JOINT joint_13
							{
								OFFSET 5.858887 29.785156 -234.603027
								CHANNELS 3 Zrotation Yrotation Xrotation
								End Site
								{
									OFFSET 0.000000 0.000000 0.000000
								}
							}
						}
					}
				}
			}
		}
	}
	JOINT joint_14
	{
		OFFSET -8.917725 -79.985535 -99.035034
		CHANNELS 3 Zrotation Yrotation Xrotation
		JOINT joint_15
		{
			OFFSET -32.739502 -31.478882 -502.570984
			CHANNELS 3 Zrotation Yrotation Xrotation
			JOINT joint_16
			{
				OFFSET 7.393066 -29.352966 -399.008011
				CHANNELS 3 Zrotation Yrotation Xrotation
				JOINT joint_17
				{
					OFFSET 178.013916 -26.060303 -71.875002
					CHANNELS 3 Zrotation Yrotation Xrotation
					End Site
					{
						OFFSET 0.000000 0.000000 0.000000
					}
				}
			}
		}
	}
	JOINT joint_18
	{
		OFFSET 1.900879 81.159851 -98.481018
		CHANNELS 3 Zrotation Yrotation Xrotation
		JOINT joint_19
		{
			OFFSET -15.120850 31.602051 -503.400024
			CHANNELS 3 Zrotation Yrotation Xrotation
			JOINT joint_20
			{
				OFFSET -16.653076 23.887695 -399.091988
				CHANNELS 3 Zrotation Yrotation Xrotation
				JOINT joint_21
				{
					OFFSET 179.618164 -1.217651 -72.592001
					CHANNELS 3 Zrotation Yrotation Xrotation
					End Site
					{
						OFFSET 0.000000 0.000000 0.000000
					}
				}
			}
		}
	}
}
MOTION
Frames: 11
Frame Time: 0.016667
-2253.682861 404.790497 1093.272949 -9.017901 16.905667 -3.694527 9.368776 18.173848 4.774238 10.332764 -2.312019 -1.895318 10.726080 2.517395 0.272919 -1.018611 -11.944054 -1.569171 0.000000 0.000000 0.000000 -4.214178 5.702489 -6.125730 -7.301087 7.084417 -8.491738 -1.230459 -34.117717 11.440081 0.000000 0.000000 0.000000 4.507438 -8.423528 9.833173 10.310124 1.411277 22.232544 -4.353051 -85.039272 -80.307604 0.000000 0.000000 0.000000 10.362135 -7.474546 3.446622 6.873658 30.601244 10.446123 12.212809 11.277696 5.000204 0.000000 0.000000 0.000000 1.849623 -48.737088 -8.830103 2.293449 36.225228 -0.320277 -3.443990 -12.699473 -1.207452 0.000000 0.000000 0.000000 
-2223.588379 393.784760 1086.633057 -8.610768 17.142212 -4.291568 10.943001 18.930762 5.617578 10.165472 -2.302712 -2.130023 10.265596 2.558215 0.411378 -1.232549 -11.494907 -1.214817 0.000000 0.000000 0.000000 -4.061304 5.480101 -6.312853 -8.355566 7.236515 -9.249321 -1.656887 -35.699310 12.719611 0.000000 0.000000 0.000000 5.065302 -10.685903 9.451328 11.777088 1.346432 24.779517 175.197538 -87.312690 97.944689 0.000000 0.000000 0.000000 10.932214 -8.527208 3.608247 7.237152 33.853204 12.372880 14.850932 13.469558 5.927154 0.000000 0.000000 0.000000 0.742947 -47.011587 -8.053056 2.583470 30.689588 -0.359557 -1.501234 -11.691104 -0.506509 0.000000 0.000000 0.000000 
-2192.371826 383.183533 1076.416992 -8.291179 17.213629 -5.051403 12.517619 19.177056 6.651360 9.915495 -2.233490 -2.293538 9.619964 2.522057 0.506917 -1.407727 -10.880441 -0.945153 0.000000 0.000000 0.000000 -4.196174 5.396631 -6.622326 -9.068369 7.385198 -9.782998 -1.932126 -37.021192 13.690895 0.000000 0.000000 0.000000 5.699846 -12.727624 9.089450 12.577441 1.834567 28.089928 174.076114 -77.470919 98.673525 0.000000 0.000000 0.000000 11.553538 -9.639619 3.567106 7.569914 37.565025 14.809995 18.289443 15.209754 6.986959 0.000000 0.000000 0.000000 -0.279977 -45.549062 -7.504546 3.009021 28.202097 0.256269 -0.076983 -9.666629 0.017807 0.000000 0.000000 0.000000 
-2160.077881 372.796661 1062.843018 -7.837098 17.170585 -5.787415 14.055781 18.967277 7.621511 9.517313 -2.208051 -2.341885 8.686920 2.510606 0.650744 -1.564334 -10.109904 -0.710289 0.000000 0.000000 0.000000 -4.534469 5.404571 -6.910035 -9.483822 7.479034 -10.275471 -2.083733 -38.154480 14.442290 0.000000 0.000000 0.000000 6.452506 -14.435729 8.727491 11.897650 3.089396 32.205167 173.332647 -68.590144 101.688990 0.000000 0.000000 0.000000 12.149145 -10.711981 3.223893 7.790654 41.569554 17.665136 22.671019 16.921778 8.356156 0.000000 0.000000 0.000000 -1.336649 -44.213726 -7.301242 3.578231 28.087576 1.596873 1.209602 -7.084970 0.499439 0.000000 0.000000 0.000000 
-2129.203369 362.586792 1049.973022 -7.035161 17.292978 -6.143609 15.241965 18.929446 8.382095 9.017303 -2.209786 -2.386200 7.624856 2.581472 0.815066 -1.768770 -9.618403 -0.615480 0.000000 0.000000 0.000000 -4.771352 5.358947 -7.128712 -9.764909 7.469372 -10.550456 -2.191043 -39.320988 14.635077 0.000000 0.000000 0.000000 6.977834 -16.095807 8.311038 11.459741 4.471315 36.177706 173.814183 -61.709741 103.839354 0.000000 0.000000 0.000000 11.673390 -12.410357 2.498430 6.900062 46.737249 19.566495 25.333680 18.239364 9.332902 0.000000 0.000000 0.000000 -2.360067 -43.632605 -7.230531 4.101849 29.763364 2.630867 2.129053 -5.398957 0.855246 0.000000 0.000000 0.000000 
-2102.017578 352.418549 1040.286011 -5.483779 17.770213 -5.578731 15.615951 19.642238 8.603931 8.432112 -2.167796 -2.369200 6.545233 2.717219 0.935379 -2.058939 -9.796635 -0.790079 0.000000 0.000000 0.000000 -4.682759 5.142225 -7.315474 -10.046267 7.419273 -10.315017 -2.317688 -40.829599 13.904225 0.000000 0.000000 0.000000 6.925126 -17.822499 8.066448 12.113373 5.657917 39.323200 175.144931 -55.751636 104.408085 0.000000 0.000000 0.000000 9.507791 -15.369937 1.122502 4.369268 54.091342 19.447975 23.158409 18.389257 8.506899 0.000000 0.000000 0.000000 -3.460119 -44.599498 -7.231657 4.469625 33.723022 2.444587 2.414607 -5.965088 1.005956 0.000000 0.000000 0.000000 
-2077.584717 342.300110 1032.229004 -3.369270 18.237071 -4.178595 15.302017 21.279110 8.317308 7.770092 -2.126374 -2.202587 5.487958 2.717443 0.955820 -2.387929 -10.415273 -1.170995 0.000000 0.000000 0.000000 -4.410198 4.829240 -7.585590 -10.256644 7.379258 -9.531622 -2.423159 -42.571040 12.401664 0.000000 0.000000 0.000000 6.386795 -19.591362 8.161588 13.819954 6.735363 41.914523 177.131807 -49.112006 103.842564 0.000000 0.000000 0.000000 6.593133 -19.069133 -0.838414 1.117251 62.499475 17.767631 17.098301 16.857771 4.767654 0.000000 0.000000 0.000000 -4.701248 -46.565616 -7.332512 4.734999 39.927468 1.372282 2.228228 -7.656669 1.053272 0.000000 0.000000 0.000000 
-2053.081055 332.767456 1026.755005 -1.757152 18.744760 -3.000535 15.241572 23.011534 8.306675 7.092436 -2.119530 -2.088359 4.476044 2.628386 0.942603 -2.600119 -10.961612 -1.518863 0.000000 0.000000 0.000000 -4.123200 4.327531 -7.884018 -10.337568 7.259401 -8.720726 -2.447989 -43.813973 10.837908 0.000000 0.000000 0.000000 5.863690 -21.095960 8.129192 16.538144 6.715060 43.887469 178.790303 -41.831626 102.020617 0.000000 0.000000 0.000000 4.277054 -23.040810 -2.663764 -1.352224 69.480108 15.701646 12.113964 14.557873 -2.332647 0.000000 0.000000 0.000000 -5.798560 -48.066947 -7.198133 4.900266 45.130675 0.434297 1.968216 -9.145390 1.107666 0.000000 0.000000 0.000000 
-2026.639771 324.427856 1024.874023 -1.422114 19.709178 -2.792540 16.305668 23.830800 9.006385 6.396317 -2.172596 -2.112680 3.287519 2.698020 1.007657 -2.578497 -11.165683 -1.768470 0.000000 0.000000 0.000000 -3.845426 3.446783 -8.063473 -10.210504 6.903854 -8.376381 -2.351121 -43.961544 9.609214 0.000000 0.000000 0.000000 5.750014 -21.618358 7.719683 19.736042 4.939981 44.644234 179.025662 -36.061737 99.382844 0.000000 0.000000 0.000000 2.784916 -27.532320 -3.865273 -2.557090 74.554056 13.886492 10.227465 13.078989 -12.180869 0.000000 0.000000 0.000000 -6.534383 -48.484636 -6.654132 5.093753 47.378602 0.488570 2.008831 -10.471261 1.200474 0.000000 0.000000 0.000000 
-1999.311768 317.081573 1026.182007 -1.982785 21.043924 -3.163556 18.046191 24.145619 10.014138 5.652645 -2.252471 -2.145523 2.011405 2.815949 1.087046 -2.418023 -11.181722 -2.032198 0.000000 0.000000 0.000000 -3.517323 2.257189 -8.170852 -9.875112 6.343836 -8.259810 -2.162734 -43.290942 8.438908 0.000000 0.000000 0.000000 5.747434 -20.076470 7.718367 21.816570 2.685486 43.376865 177.399513 -40.518828 97.873688 0.000000 0.000000 0.000000 1.332825 -32.714986 -4.462775 -3.168719 78.485424 11.790950 9.296036 12.739328 -25.088948 0.000000 0.000000 0.000000 -6.994855 -48.298534 -5.868405 5.368694 47.888638 1.154251 2.208558 -12.105726 1.288391 0.000000 0.000000 0.000000 
-1971.287964 309.576935 1029.323975 -2.498033 22.452465 -3.528772 19.449534 24.360463 10.831643 4.908040 -2.309997 -2.128707 0.951492 2.865312 1.139873 -2.303078 -11.128838 -2.219756 0.000000 0.000000 0.000000 -3.255232 1.255574 -8.188843 -9.501784 5.853106 -8.157995 -1.967601 -42.598457 7.415699 0.000000 0.000000 0.000000 5.638671 -16.655845 8.357840 21.914503 0.646941 40.837194 169.597648 -62.219165 103.230389 0.000000 0.000000 0.000000 -0.340876 -37.895547 -4.420732 -3.660867 80.906198 9.404555 7.315389 11.721715 -33.754885 0.000000 0.000000 0.000000 -7.344158 -47.773600 -5.202674 5.567360 47.605039 1.859805 2.401228 -13.418620 1.339733 0.000000 0.000000 0.000000 
